<?xml version="1.0" standalone="no"?><!DOCTYPE svg PUBLIC "-//W3C//DTD SVG 1.1//EN" "http://www.w3.org/Graphics/SVG/1.1/DTD/svg11.dtd"><svg t="1612677323160" class="icon" viewBox="0 0 1453 1024" version="1.1" xmlns="http://www.w3.org/2000/svg" p-id="2663" xmlns:xlink="http://www.w3.org/1999/xlink" width="283.7890625" height="200"><defs><style type="text/css"></style></defs><path d="M214.220991 149.698772c0 17.411176-16.678523 31.528456-37.28009 31.528456L37.278061 181.227228C16.678523 181.227228 0 167.109948 0 149.698772L0 31.477718C0 14.170047 16.678523 0 37.278061 0l139.66284 0c20.601568 0 37.28009 14.170047 37.28009 31.477718L214.220991 149.698772M1452.756556 149.698772c0 17.411176-16.678523 31.528456-37.227323 31.528456l-1015.060003 0c-20.603597 0-37.231382-14.11728-37.231382-31.528456L363.237847 31.477718c0-17.307671 16.627785-31.477718 37.231382-31.477718l1015.057974 0c20.5488 0 37.227323 14.170047 37.227323 31.477718L1452.756556 149.698772 1452.756556 149.698772M214.220991 571.084143c0 17.413206-16.678523 31.475688-37.28009 31.475688L37.278061 602.559832C16.678523 602.559832 0 588.497349 0 571.084143l0-118.170316c0-17.360438 16.678523-31.477718 37.278061-31.477718l139.66284 0c20.601568 0 37.28009 14.119309 37.28009 31.477718L214.220991 571.084143M1452.756556 571.084143c0 17.413206-16.678523 31.475688-37.227323 31.475688l-1015.060003 0c-20.603597 0-37.231382-14.062483-37.231382-31.475688l0-118.170316c0-17.360438 16.627785-31.477718 37.231382-31.477718l1015.057974 0c20.5488 0 37.227323 14.119309 37.227323 31.477718L1452.756556 571.084143 1452.756556 571.084143M214.220991 992.522282c0 17.409147-16.678523 31.475688-37.28009 31.475688L37.278061 1023.99797C16.678523 1023.99797 0 1009.933458 0 992.522282l0-118.174375c0-17.358409 16.678523-31.528456 37.278061-31.528456l139.66284 0c20.601568 0 37.28009 14.168017 37.28009 31.528456L214.220991 992.522282M1452.756556 992.522282c0 17.409147-16.678523 31.475688-37.227323 31.475688l-1015.060003 0c-20.603597 0-37.231382-14.066542-37.231382-31.475688l0-118.174375c0-17.358409 16.627785-31.528456 37.231382-31.528456l1015.057974 0c20.5488 0 37.227323 14.168017 37.227323 31.528456L1452.756556 992.522282 1452.756556 992.522282" p-id="2664"></path></svg>