<?xml version="1.0" standalone="no"?><!DOCTYPE svg PUBLIC "-//W3C//DTD SVG 1.1//EN" "http://www.w3.org/Graphics/SVG/1.1/DTD/svg11.dtd"><svg t="1612763510414" class="icon" viewBox="0 0 1024 1024" version="1.1" xmlns="http://www.w3.org/2000/svg" p-id="23662" xmlns:xlink="http://www.w3.org/1999/xlink" width="200" height="200"><defs><style type="text/css"></style></defs><path d="M989.611017 546.124688H404.682657a135.88383 135.88383 0 0 1-263.373029 0H34.124518a34.124518 34.124518 0 0 1 0-68.249035h107.18511a135.88383 135.88383 0 0 1 263.373029 0H989.611017a34.124518 34.124518 0 0 1 0 68.249035zM272.996143 443.751135a68.249036 68.249036 0 1 0 68.249035 68.249036 68.249036 68.249036 0 0 0-68.249035-68.249036z m716.614874-272.996143h-107.18511a135.88383 135.88383 0 0 1-263.373029 0H34.124518a34.124518 34.124518 0 0 1 0-68.249035h584.92836a135.88383 135.88383 0 0 1 263.373029 0H989.611017a34.124518 34.124518 0 0 1 0 68.249035z m-238.871625-102.373553a68.249036 68.249036 0 1 0 68.249036 68.249035 68.249036 68.249036 0 0 0-68.249036-68.249035zM34.124518 853.245349h584.92836a135.88383 135.88383 0 0 1 263.373029 0H989.611017a34.124518 34.124518 0 0 1 0 68.249036h-107.18511a135.88383 135.88383 0 0 1-263.373029 0H34.124518a34.124518 34.124518 0 0 1 0-68.249036z m716.614874 102.373553a68.249036 68.249036 0 1 0-68.249035-68.249035 68.249036 68.249036 0 0 0 68.249035 68.249035z" p-id="23663"></path></svg>