<?xml version="1.0" standalone="no"?><!DOCTYPE svg PUBLIC "-//W3C//DTD SVG 1.1//EN" "http://www.w3.org/Graphics/SVG/1.1/DTD/svg11.dtd"><svg t="1612763581235" class="icon" viewBox="0 0 1024 1024" version="1.1" xmlns="http://www.w3.org/2000/svg" p-id="23795" xmlns:xlink="http://www.w3.org/1999/xlink" width="200" height="200"><defs><style type="text/css"></style></defs><path d="M585.088 716.736a16.768 16.768 0 0 1-16.512-16.256v-38.656a16.512 16.512 0 0 1 16.512-16.128h401.408c8.96 0 16.448 7.232 16.64 16.256v38.656a16.576 16.576 0 0 1-16.64 16.256l-401.408-0.128z m0 142.528a16.768 16.768 0 0 1-16.512-16.256v-38.656a16.704 16.704 0 0 1 16.512-16.256h401.408a16.64 16.64 0 0 1 16.64 16.384v38.4a16.64 16.64 0 0 1-16.64 16.448l-401.408-0.064z m0 142.592a16.768 16.768 0 0 1-16.512-16.256v-38.592a16.448 16.448 0 0 1 16.512-16.256h401.408a16.64 16.64 0 0 1 16.64 16.384v38.4a16.64 16.64 0 0 1-16.64 16.448H585.088v-0.128zM496 711.488c-116.992 0-212.16-93.632-212.16-208.64 0-115.2 95.04-208.768 212.16-208.768 116.864 0 212.032 93.76 212.032 208.768 0 24.448-4.288 48.512-12.8 71.232H613.76c13.44-21.248 20.672-45.952 20.672-71.232 0-75.072-62.208-136.32-138.624-136.32-76.288 0-138.496 61.12-138.496 136.32 0.128 75.136 62.336 136.384 138.624 136.384v72.256z m-4.992 222.72c3.2 3.2 4.992 7.68 5.12 12.288v38.016a17.472 17.472 0 0 1-17.344 17.088H409.6a61.44 61.44 0 0 1-62.016-58.176l-10.112-73.216a407.808 407.808 0 0 1-85.312-48.256l-69.184 27.84a62.976 62.976 0 0 1-82.368-23.68L13.824 678.592a60.416 60.416 0 0 1 20.288-81.984l59.392-45.248a366.72 366.72 0 0 1 0-96.832l-59.392-45.184a60.544 60.544 0 0 1-20.416-81.792L100.48 179.904a62.656 62.656 0 0 1 82.112-23.936l69.44 27.84c26.24-19.52 54.848-35.84 85.12-48.256l10.24-73.088a61.504 61.504 0 0 1 61.952-58.24h173.312a61.44 61.44 0 0 1 61.952 58.112l10.176 73.216c30.272 12.608 59.008 28.8 85.376 48.128l69.44-27.584a63.04 63.04 0 0 1 82.24 23.68l86.4 147.648a60.544 60.544 0 0 1-20.032 82.048l-59.264 45.056a378.304 378.304 0 0 1 0 96.96 171.968 171.968 0 0 1-1.792 11.008c-0.896 3.84-1.984 7.808-3.072 11.712h-73.472l2.432-13.568a305.28 305.28 0 0 0 0-115.392l-4.032-21.504 90.432-68.8-77.248-131.968-104.832 44.16-17.024-14.4a331.264 331.264 0 0 0-101.504-57.28l-20.8-7.488L572.352 76.8H419.456l-15.232 111.36-20.8 7.488a331.904 331.904 0 0 0-101.568 57.6l-16.96 14.272-105.856-42.688-76.544 130.176 90.432 68.8-3.84 21.632a324.544 324.544 0 0 0-5.568 57.6c0 19.2 1.856 38.592 5.312 57.408l3.776 21.632-90.24 68.928L160 782.848l104.64-44.16 17.088 14.208a329.088 329.088 0 0 0 101.568 57.472l20.8 7.424 15.488 111.616h58.88v-0.256a17.92 17.92 0 0 1 12.544 4.992z" fill="#6F4300" p-id="23796"></path></svg>