<?xml version="1.0" standalone="no"?><!DOCTYPE svg PUBLIC "-//W3C//DTD SVG 1.1//EN" "http://www.w3.org/Graphics/SVG/1.1/DTD/svg11.dtd"><svg t="1612506545072" class="icon" viewBox="0 0 1024 1024" version="1.1" xmlns="http://www.w3.org/2000/svg" p-id="10710" xmlns:xlink="http://www.w3.org/1999/xlink" width="200" height="200"><defs><style type="text/css"></style></defs><path d="M854.756468 71.704084h-54.298054v-0.766303H759.734873v0.766303H176.030789c-12.698739 0-23.426983 8.867223-26.382724 20.690186V946.931794c2.955741 11.822963 13.683985 20.690186 26.382724 20.690186h461.533462l244.341244-244.341244V98.853111c0-14.997648-12.151379-27.149027-27.149027-27.149027z m-203.617704 825.308531V736.855249h160.157366L651.138764 897.012615z m190.04319-200.880907h-203.617703c-14.888176 0-27.149027 12.260851-27.149028 27.149028v203.617703H189.605303v-814.470814h651.576651v583.704083z" fill="" p-id="10711"></path><path d="M314.841137 274.8839m-40.176181 0a40.176181 40.176181 0 1 0 80.352363 0 40.176181 40.176181 0 1 0-80.352363 0Z" fill="" p-id="10712"></path><path d="M414.132136 295.355142h336.626042c7.225144 0 13.136626-5.911482 13.136626-13.136626v-14.778704c0-7.225144-5.911482-13.136626-13.136626-13.136626H414.132136c-7.225144 0-13.136626 5.911482-13.136626 13.136626v14.778704c0 7.225144 5.911482 13.136626 13.136626 13.136626z" fill="" p-id="10713"></path><path d="M314.841137 432.742356m-40.176181 0a40.176181 40.176181 0 1 0 80.352363 0 40.176181 40.176181 0 1 0-80.352363 0Z" fill="" p-id="10714"></path><path d="M414.132136 453.32307h336.626042c7.225144 0 13.136626-5.911482 13.136626-13.136626v-14.778704c0-7.225144-5.911482-13.136626-13.136626-13.136626H414.132136c-7.225144 0-13.136626 5.911482-13.136626 13.136626v14.778704c0 7.225144 5.911482 13.136626 13.136626 13.136626z" fill="" p-id="10715"></path><path d="M314.841137 590.710284m-40.176181 0a40.176181 40.176181 0 1 0 80.352363 0 40.176181 40.176181 0 1 0-80.352363 0Z" fill="" p-id="10716"></path><path d="M414.132136 611.181527h336.626042c7.225144 0 13.136626-5.911482 13.136626-13.136626v-14.778705c0-7.225144-5.911482-13.136626-13.136626-13.136626H414.132136c-7.225144 0-13.136626 5.911482-13.136626 13.136626v14.778705c0 7.225144 5.911482 13.136626 13.136626 13.136626z" fill="" p-id="10717"></path></svg>