<?xml version="1.0" standalone="no"?><!DOCTYPE svg PUBLIC "-//W3C//DTD SVG 1.1//EN" "http://www.w3.org/Graphics/SVG/1.1/DTD/svg11.dtd"><svg t="1612764468012" class="icon" viewBox="0 0 1024 1024" version="1.1" xmlns="http://www.w3.org/2000/svg" p-id="31014" xmlns:xlink="http://www.w3.org/1999/xlink" width="200" height="200"><defs><style type="text/css"></style></defs><path d="M997.824 12.368c-11.104-8.144-24.416-12.352-37.856-12.352-6.448 0-12.944 0.976-19.232 2.96L656.528 92.72l-268.304-89.44C381.664 1.088 374.832 0 367.984 0c-7.488 0-14.992 1.312-22.112 3.952l-304 112C16.72 125.216 0 149.184 0 176l0 784c0 20.384 9.712 39.568 26.176 51.632C37.28 1019.76 50.56 1024 64 1024c6.464 0 12.976-0.992 19.264-2.976L368 931.104l284.736 89.92C659.008 1023.008 665.488 1024 671.984 1024c6.848 0 13.68-1.088 20.256-3.28l288-96C1006.368 916 1024 891.552 1024 864L1024 64C1024 43.616 1014.288 24.432 997.824 12.368zM950.336 33.504c3.12-0.992 6.368-1.488 9.648-1.488 6.8 0 13.52 2.192 18.944 6.176C987.104 44.192 992 53.84 992 64l0 401.376c-3.744-0.576-7.632-1.328-11.712-2.112-18.672-3.728-30.384-8.336-44.48-24.736-16.64-19.008-6.96-49.76-25.296-65.824-7.072-6.048-13.856-8.064-20.704-8.064-13.184-0.016-26.592 7.488-42.8 8.064-26.656 1.184-44.992 12.096-67.104 12.096-6.832 0-14.032-1.024-21.952-3.728-21.472-7.36-29.696-24.176-50.848-32.976-6.816-2.88-13.04-4.656-19.088-5.984L688.016 243.04c18.016 6.416 34.08 12.368 57.2 14.592 12.656 1.264 22.88 6.08 33.12 6.08 5.76 0 11.536-1.536 17.728-6.08 19.184-14.304 35.664-40.352 25.472-65.728-6.624-16.72-22.576-10.432-31.92-24.72-10.016-15.744-5.264-30.128-12.56-49.248 4.544-14.016 12.288-23.872 16.576-34.96L950.336 33.504zM747.152 129.344c1.776 4.688 2.336 9.392 3.024 15.344 1.216 10.4 2.896 24.672 12.416 39.664 9.648 14.736 22.336 20.24 29.952 23.168 0.24 8.464-8 18.608-15.168 24.112-1.936-0.272-5.424-1.136-8.08-1.808-5.664-1.44-12.704-3.2-20.944-4.032-18.464-1.776-31.36-6.368-47.664-12.208-3.936-1.408-8.32-2.912-12.704-4.4L687.984 116.336l63.392-20.016c-1.664 3.664-3.376 7.392-4.784 11.744C744.352 115.008 744.544 122.528 747.152 129.344zM656 339.424c-8.688 0.176-17.616 0.64-27.664 0.64-3.264 0-6.624-0.064-10.144-0.208-1.888-0.08-3.728-0.112-5.552-0.112-17.712 0-31.264 3.408-46.416 3.408-7.472 0-15.312-0.832-24.272-3.296-20.64-5.728-37.776-3.008-50.864-24.512-15.184-25.52-14.416-56.288 0-82.432 15.104-27.04 37.872-20.896 63.6-24.624 4.736-0.64 9.2-0.944 13.488-0.944 31.952 0 53.024 16.432 87.808 25.472L655.984 339.424zM503.088 707.472c-8.48 20.64-24.144 24.944-41.696 24.944-3.008 0-6.064-0.128-9.152-0.32-18.848-1.104-27.328-14.512-44.48-24.624-16.336-9.632-27.616-22.816-39.744-33.2l0-207.68c11.952 16.144 16.64 32.592 33.296 43.376 6.464 4.192 12.624 5.664 18.64 5.664 14.416 0 28.064-8.464 43.296-8.464 4.624 0 9.408 0.784 14.384 2.816 25.552 10.656 47.28 17.248 57.12 49.568 6.448 20.8 6.624 36.736 0 57.392-6.528 20.88-25.648 19.776-31.664 41.104C497.728 676.256 509.968 690.32 503.088 707.472zM32 306.496c14-0.112 27.552-1.056 45.424-1.968 22.32-1.232 38.32-13.056 56.624-13.056 6.144 0 12.544 1.328 19.536 4.832 21.392 10.432 25.376 33.168 44.56 49.232 28.96 24.288 51.952 20.672 82.608 41.232 22.848 15.344 38.688 28.128 55.248 44.576l0 227.36c-1.52-0.208-2.88-0.624-4.48-0.688-5.952-0.176-11.36-0.88-16.4-0.88-7.76 0-14.736 1.632-21.712 9.216-12.048 12.976-1.68 34.976-12.64 49.248-7.968 10.592-16.912 13.888-26.656 13.888-9.472 0-19.696-3.088-30.56-5.648-21.824-4.976-29.04-27.6-50.768-32.88-8.144-1.952-14.656-3.52-21.264-3.52-5.264 0-10.576 0.992-16.864 3.52-27.008 10.992-31.504 41.424-44.576 74.08-10.688 27.04-0.08 55.824-19.008 73.856-9.2 8.784-18.016 11.488-27.552 11.488-3.696 0-7.536-0.416-11.504-1.024L32.016 306.496zM52.944 145.984 336 41.696 336 388c-11.232-9.408-23.104-18.192-37.408-27.792-17.312-11.616-32.304-16.896-45.52-21.568-13.376-4.704-23.024-8.112-34.368-17.632-4.8-4.016-8.576-9.712-12.976-16.336-8.112-12.224-18.208-27.44-38.128-37.152-10.576-5.296-21.968-8.064-33.568-8.064-14.432 0-26.448 4.112-37.024 7.744-7.808 2.672-14.56 4.992-21.36 5.36L62.752 273.28C51.008 273.92 41.568 274.432 32 274.496L32 176C32 162.656 40.4 150.592 52.944 145.984zM73.648 990.512C70.512 991.504 67.264 992 64 992c-6.848 0-13.392-2.144-18.912-6.192C36.896 979.808 32 970.16 32 960l0-78.464c3.76 0.448 7.552 0.88 11.504 0.88 19.056 0 35.312-6.656 49.648-20.336 20.096-19.12 21.712-43.472 22.928-61.232 0.592-8.976 1.168-17.44 3.76-24 2.88-7.184 5.408-14.384 7.824-21.328 7.712-22 11.84-31.936 19.04-34.88 2.848-1.152 4.112-1.152 4.8-1.152 2.88 0 7.936 1.216 13.776 2.624 2.352 0.576 6.336 4.384 10.544 8.416 8.864 8.464 20.992 20.08 40.592 24.544l5.808 1.408c9.552 2.352 20.368 5.024 31.856 5.024 21.04 0 39.104-9.216 52.24-26.656 11.424-14.896 11.936-31.6 12.304-42.656 0.032-0.864 0.064-1.872 0.096-2.896 0.896 0.048 1.792 0.128 2.72 0.192 2.928 0.224 5.952 0.416 9.12 0.512 1.888 0.08 3.664 0.432 5.44 1.088l0 216.56L73.648 990.512zM377.648 900.592 368 897.552 368 717.6c6.752 5.968 14.304 12.016 23.52 17.456 3.84 2.272 7.504 5.12 11.36 8.16 10.496 8.24 24.88 19.504 47.488 20.832 3.664 0.24 7.376 0.368 11.024 0.368 35.088 0 59.072-15.056 71.296-44.768 7.168-17.872 4.208-33.232 2.24-43.392-0.72-3.68-1.52-7.872-1.12-9.216l0.272-0.832c0.48-0.64 2.944-2.56 4.72-3.984 7.616-5.984 20.336-16.016 26.512-35.744 8.416-26.32 8.448-49.232 0.016-76.432-13.488-44.24-44.72-57.04-69.824-67.328l-5.552-2.288c-8.656-3.536-17.568-5.28-26.704-5.28-12.368 0-22.928 3.136-31.376 5.664-4.656 1.392-9.472 2.816-11.92 2.816-0.32-0.016-0.608-0.112-1.248-0.512-4.608-2.992-7.616-7.872-12.96-16.96-4.464-7.616-10.032-17.056-18.336-26.512-6.944-7.888-13.28-14.832-19.408-21.264L368 32c3.456 0 6.848 0.544 10.112 1.648L646.4 123.072 656 126.272l0 73.04c-8.064-2.56-15.664-5.392-23.392-8.48-18.928-7.616-38.512-15.488-64.416-15.488-5.824 0-11.824 0.4-17.824 1.232-4.688 0.672-9.392 0.976-14.368 1.264-20.928 1.264-52.544 3.184-72.816 39.456-20.4 37.008-20.208 79.712 0.432 114.416 17.536 28.848 42.08 33.44 58.336 36.496 4.048 0.752 7.872 1.472 11.472 2.464 10.896 3.008 21.632 4.464 32.832 4.464 9.104 0 17.184-0.928 24.992-1.808 7.216-0.816 14.032-1.6 21.424-1.6 1.376 0 2.8 0.032 4.24 0.08 3.984 0.176 7.776 0.24 11.456 0.24 6.656 0 12.864-0.224 18.832-0.416 3.024-0.112 5.904-0.16 8.832-0.224l0 617.072L377.648 900.592zM970.112 894.352 688 988.384 688 375.184c2.176 0.704 4.336 1.424 6.688 2.4 5.664 2.352 10.048 6.048 16.112 11.168 8.864 7.472 19.888 16.784 36.768 22.56 10.832 3.68 21.376 5.472 32.336 5.472 15.28 0 28.48-3.552 40.128-6.688 9.552-2.576 18.56-4.992 28.4-5.44 11.728-0.416 21.856-3.232 30-5.488 3.984-1.088 8.464-2.336 10.816-2.528 1.248 2.272 2.4 9.472 3.168 14.288 2.224 13.744 5.248 32.592 19.312 48.672 19.488 22.672 38.32 30.24 62.288 35.024l1.664 0.336c5.296 0.992 10.752 1.888 16.336 2.56L992.016 864C992 877.792 983.2 890 970.112 894.352z" p-id="31015"></path><path d="M884.896 629.152c-10.848-3.328-21.088-6.464-32.16-6.464-10.432 0-19.856 2.832-28.864 8.688-10.112 6.672-13.024 14.912-13.696 20.624-1.776 15.44 9.664 27.568 21.776 40.4 8.096 8.576 20.32 21.536 17.952 27.696-1.536 4.096-6.176 6.336-15.664 10.128-11.792 4.736-29.648 11.856-33.504 33.136-2.176 11.808 0.512 22.656 7.76 31.36 10.192 12.208 28.656 18.928 52.048 18.928 23.84 0 47.28-6.88 62.848-18.496 26.448-20.288 36.592-49.92 30.144-88.048C947.104 668.208 923.712 641.36 884.896 629.152zM904.08 769.648c-9.76 7.296-26.864 12.016-43.536 12.016-14.704 0-24.368-3.712-27.472-7.424-0.544-0.656-1.488-1.776-0.88-5.12 0.592-3.184 3.056-4.816 13.92-9.152 11.44-4.576 27.104-10.848 33.712-28.512 9.488-24.848-10.224-45.728-24.624-60.992-3.808-4.032-9.12-9.664-11.76-13.488 8.4-4.432 17.984-1.536 32.864 3.04 26.272 8.272 41.2 25.376 45.664 52.384C926.48 739.04 920.912 756.736 904.08 769.648z" p-id="31016"></path></svg>