<?xml version="1.0" standalone="no"?><!DOCTYPE svg PUBLIC "-//W3C//DTD SVG 1.1//EN" "http://www.w3.org/Graphics/SVG/1.1/DTD/svg11.dtd"><svg t="1611805905404" class="icon" viewBox="0 0 1024 1024" version="1.1" xmlns="http://www.w3.org/2000/svg" p-id="2955" xmlns:xlink="http://www.w3.org/1999/xlink" width="200" height="200"><defs><style type="text/css"></style></defs><path d="M682.666667 981.333333c-8.533333 0-12.8 0-17.066667-4.266666L341.333333 814.933333l-277.333333 157.866667c-12.8 8.533333-29.866667 8.533333-42.666667 0-12.8-4.266667-21.333333-17.066667-21.333333-34.133333V256c0-17.066667 8.533333-29.866667 21.333333-38.4l298.666667-170.666667c12.8-4.266667 25.6-4.266667 38.4 0L682.666667 209.066667l277.333333-157.866667c12.8-8.533333 29.866667-8.533333 42.666667 0 12.8 4.266667 21.333333 17.066667 21.333333 34.133333v682.666667c0 17.066667-8.533333 29.866667-21.333333 38.4l-298.666667 170.666667c-8.533333 4.266667-12.8 4.266667-21.333333 4.266666z m-341.333334-256c8.533333 0 12.8 0 17.066667 4.266667l320 162.133333 256-145.066666V157.866667l-234.666667 132.266666c-12.8 8.533333-25.6 8.533333-38.4 0L341.333333 132.266667 85.333333 281.6v584.533333l234.666667-132.266666c8.533333-8.533333 12.8-8.533333 21.333333-8.533334z" p-id="2956"></path><path d="M341.333333 810.666667c-25.6 0-42.666667-17.066667-42.666666-42.666667V85.333333c0-25.6 17.066667-42.666667 42.666666-42.666666s42.666667 17.066667 42.666667 42.666666v682.666667c0 25.6-17.066667 42.666667-42.666667 42.666667zM682.666667 981.333333c-25.6 0-42.666667-17.066667-42.666667-42.666666V256c0-25.6 17.066667-42.666667 42.666667-42.666667s42.666667 17.066667 42.666666 42.666667v682.666667c0 25.6-17.066667 42.666667-42.666666 42.666666z" p-id="2957"></path></svg>