<?xml version="1.0" standalone="no"?><!DOCTYPE svg PUBLIC "-//W3C//DTD SVG 1.1//EN" "http://www.w3.org/Graphics/SVG/1.1/DTD/svg11.dtd"><svg t="1613713161147" class="icon" viewBox="0 0 1024 1024" version="1.1" xmlns="http://www.w3.org/2000/svg" p-id="3343" xmlns:xlink="http://www.w3.org/1999/xlink" width="200" height="200"><defs><style type="text/css"></style></defs><path d="M1023.150438 553.639086a21.631027 21.631027 0 0 0-3.455844-10.87951l-2.559885-2.559885a20.735067 20.735067 0 0 0-3.839827-4.351804H1011.182977l-243.829028-103.099361V125.242364a21.631027 21.631027 0 0 0-3.391847-10.87951l-2.559885-2.623882a20.735067 20.735067 0 0 0-3.839827-4.351804L519.429106 1.663925a21.311041 21.311041 0 0 0-16.639251 0L269.584349 105.211265a21.11905 21.11905 0 0 0-3.839827 4.351805l-2.559885 3.071861A21.375038 21.375038 0 0 0 256.016959 124.794384v307.954142L13.403877 533.671985H10.907989a20.67107 20.67107 0 0 0-3.839827 3.903824l-2.559885 2.559885a21.631027 21.631027 0 0 0-3.391847 10.87951H0.22047v341.104651a21.759021 21.759021 0 0 0 13.183407 23.038963l255.732492 107.835147a20.863061 20.863061 0 0 0 8.127634 0 20.479078 20.479078 0 0 0 8.959597 0l225.461854-104.379303 226.293817 103.547341a20.927058 20.927058 0 0 0 17.087231 0l255.732492-107.899145a21.759021 21.759021 0 0 0 13.183407-20.031098V553.639086h-0.831963z m-275.379607-82.556285l198.199081 83.004265-93.307802 38.270278-107.451164 43.518042-85.244164-39.550221-96.699649-43.518041h3.839827l180.663871-81.78832z m-23.038964-37.886295l-192.631331 87.036084V242.165103l192.631331-83.964222V433.260503zM489.542451 242.2291v277.939492l-190.90341-87.036083V158.328875l127.866247 56.573454 63.037163 27.390768zM511.685454 45.181967l180.727868 78.268478-180.727868 80.956357-179.831907-79.164438L511.621457 45.181967zM277.711983 471.018804l181.55983 83.068262-181.55983 83.516242-199.927003-83.964222 199.927003-82.556285zM42.842552 586.277618l6.783695 3.071861L256.016959 675.809589v293.618787l-213.11041-89.595968V586.277618z m255.732492 89.211985l190.071447-87.036083v293.170807l-190.071447 87.036083v-293.170807zM531.204576 588.45352l192.631332 87.036083v293.10681l-192.631332-86.972086v-293.10681z m449.259783 291.442885l-213.11041 89.595968v-293.618787l213.11041-89.595968v293.618787z" p-id="3344"></path></svg>