<?xml version="1.0" standalone="no"?><!DOCTYPE svg PUBLIC "-//W3C//DTD SVG 1.1//EN" "http://www.w3.org/Graphics/SVG/1.1/DTD/svg11.dtd"><svg t="1612676899528" class="icon" viewBox="0 0 1024 1024" version="1.1" xmlns="http://www.w3.org/2000/svg" p-id="2254" xmlns:xlink="http://www.w3.org/1999/xlink" width="200" height="200"><defs><style type="text/css"></style></defs><path d="M512 664.746667l-433.493333-192a42.666667 42.666667 0 0 0-58.88 37.973333 42.666667 42.666667 0 0 0 25.173333 39.04l380.586667 169.386667L512 757.973333a42.666667 42.666667 0 0 0 34.773333 0l87.466667-39.04 339.2-151.04a42.666667 42.666667 0 0 0 25.173333-38.826666A42.666667 42.666667 0 0 0 938.666667 490.666667l-391.04 174.08a42.666667 42.666667 0 0 1-35.626667 0z" p-id="2255"></path><path d="M512 910.08L78.506667 716.8a42.666667 42.666667 0 0 0-59.946667 38.826667 42.666667 42.666667 0 0 0 25.173333 38.826666l381.653334 170.666667L512 1002.666667a42.666667 42.666667 0 0 0 34.773333 0l87.466667-39.04 339.413333-151.04a42.666667 42.666667 0 0 0 25.173334-38.826667A42.666667 42.666667 0 0 0 938.666667 735.573333l-391.04 174.506667a42.666667 42.666667 0 0 1-35.626667 0zM456.96 27.946667l-385.28 170.666666a64 64 0 0 0 0 116.693334l406.613333 181.12a128 128 0 0 0 104.106667 0l385.28-170.666667a64 64 0 0 0 0-116.693333L560.853333 27.946667a128 128 0 0 0-103.893333 0zM528.64 426.666667L158.506667 261.546667a4.053333 4.053333 0 0 1 0-7.466667l348.586666-155.306667a4.266667 4.266667 0 0 1 3.413334 0l369.92 164.906667a4.053333 4.053333 0 0 1 0 7.466667L531.84 426.666667a4.053333 4.053333 0 0 1-3.2 0z" p-id="2256"></path></svg>