<?xml version="1.0" standalone="no"?><!DOCTYPE svg PUBLIC "-//W3C//DTD SVG 1.1//EN" "http://www.w3.org/Graphics/SVG/1.1/DTD/svg11.dtd"><svg t="1612506234639" class="icon" viewBox="0 0 1024 1024" version="1.1" xmlns="http://www.w3.org/2000/svg" p-id="7580" xmlns:xlink="http://www.w3.org/1999/xlink" width="200" height="200"><defs><style type="text/css"></style></defs><path d="M103.975385 64.905846v894.188308h816.04923V64.905846H103.975385zM39.542154 43.638154c0-23.630769 18.904615-42.614154 43.008-42.614154h858.899692c23.630769 0 43.008 18.983385 43.008 42.535385v936.88123a42.535385 42.535385 0 0 1-43.008 42.535385H82.550154a43.165538 43.165538 0 0 1-30.404923-12.445538 42.456615 42.456615 0 0 1-12.603077-30.089847V43.559385z" fill="#222222" opacity=".622" p-id="7581"></path><path d="M211.337846 299.086769c0-23.473231 19.377231-42.535385 43.323077-42.535384h514.756923c23.867077 0 43.244308 18.904615 43.244308 42.535384 0 23.473231-19.377231 42.535385-43.323077 42.535385H254.660923a43.165538 43.165538 0 0 1-30.562461-12.366769 42.456615 42.456615 0 0 1-12.603077-30.168616z m0 212.913231c0-23.473231 19.377231-42.535385 43.323077-42.535385h514.756923c23.867077 0 43.244308 18.904615 43.244308 42.535385 0 23.473231-19.377231 42.535385-43.323077 42.535385H254.660923a43.165538 43.165538 0 0 1-30.562461-12.36677 42.456615 42.456615 0 0 1-12.603077-30.168615z m0 212.913231c0-23.473231 19.140923-42.535385 42.850462-42.535385h300.898461a42.614154 42.614154 0 1 1 0 85.070769h-300.898461a42.929231 42.929231 0 0 1-30.326154-12.366769 42.220308 42.220308 0 0 1-12.524308-30.168615z" fill="#222222" opacity=".622" p-id="7582"></path></svg>