<?xml version="1.0" standalone="no"?><!DOCTYPE svg PUBLIC "-//W3C//DTD SVG 1.1//EN" "http://www.w3.org/Graphics/SVG/1.1/DTD/svg11.dtd"><svg t="1612506409870" class="icon" viewBox="0 0 1024 1024" version="1.1" xmlns="http://www.w3.org/2000/svg" p-id="8865" xmlns:xlink="http://www.w3.org/1999/xlink" width="200" height="200"><defs><style type="text/css"></style></defs><path d="M912.896 0.034133h-161.792L750.933333 0l-0.170666 0.034133h-170.325334L580.266667 0l-0.170667 0.034133H145.271467c-33.006933 0-59.904 26.862933-59.904 59.904V204.8H68.266667a17.066667 17.066667 0 0 0 0 34.133333h17.1008v170.666667H68.266667a17.066667 17.066667 0 0 0 0 34.133333h17.1008v170.666667H68.266667a17.066667 17.066667 0 0 0 0 34.133333h17.1008v170.666667H68.266667a17.066667 17.066667 0 0 0 0 34.133333h17.1008v110.762667c0 33.006933 26.862933 59.904 59.904 59.904h767.624533c33.006933 0 59.904-26.897067 59.904-59.938133V59.904C972.8 26.897067 945.902933 0 912.896 0.034133zM597.333333 34.133333h136.533334v283.067734l-56.2176-56.183467a17.066667 17.066667 0 0 0-24.132267 0L597.333333 317.201067V34.133333z m341.333334 929.962667a25.770667 25.770667 0 0 1-25.770667 25.736533H145.237333a25.8048 25.8048 0 0 1-25.770666-25.770666V853.333333h71.406933c7.0656 19.831467 25.838933 34.133333 48.059733 34.133334 28.228267 0 51.2-22.971733 51.2-51.2S267.1616 785.066667 238.933333 785.066667c-22.2208 0-40.994133 14.301867-48.059733 34.133333H119.466667v-170.666667h71.406933c7.0656 19.831467 25.838933 34.133333 48.059733 34.133334 28.228267 0 51.2-22.971733 51.2-51.2S267.1616 580.266667 238.933333 580.266667c-22.2208 0-40.994133 14.301867-48.059733 34.133333H119.466667v-170.666667h71.406933c7.0656 19.831467 25.838933 34.133333 48.059733 34.133334 28.228267 0 51.2-22.971733 51.2-51.2S267.1616 375.466667 238.933333 375.466667c-22.2208 0-40.994133 14.301867-48.059733 34.133333H119.466667V238.933333h71.406933c7.0656 19.831467 25.838933 34.133333 48.059733 34.133334 28.228267 0 51.2-22.971733 51.2-51.2S267.1616 170.666667 238.933333 170.666667c-22.2208 0-40.994133 14.301867-48.059733 34.133333H119.466667V59.904c0-14.199467 11.537067-25.770667 25.770666-25.770667H563.2v324.266667c0 6.894933 4.164267 13.141333 10.5472 15.735467a16.964267 16.964267 0 0 0 18.602667-3.6864L665.6 297.198933l73.250133 73.284267a17.2032 17.2032 0 0 0 18.602667 3.6864 17.066667 17.066667 0 0 0 10.5472-15.7696V34.133333h144.896c14.199467 0 25.770667 11.5712 25.770667 25.8048v904.157867zM221.866667 836.266667a17.066667 17.066667 0 1 1 34.133333 0 17.066667 17.066667 0 0 1-34.133333 0z m0-204.8a17.066667 17.066667 0 1 1 34.133333 0 17.066667 17.066667 0 0 1-34.133333 0z m0-204.8a17.066667 17.066667 0 1 1 34.133333 0 17.066667 17.066667 0 0 1-34.133333 0z m0-204.8a17.066667 17.066667 0 1 1 34.133333 0 17.066667 17.066667 0 0 1-34.133333 0z" p-id="8866"></path></svg>