<?xml version="1.0" standalone="no"?><!DOCTYPE svg PUBLIC "-//W3C//DTD SVG 1.1//EN" "http://www.w3.org/Graphics/SVG/1.1/DTD/svg11.dtd"><svg t="1612506014075" class="icon" viewBox="0 0 1024 1024" version="1.1" xmlns="http://www.w3.org/2000/svg" p-id="5928" xmlns:xlink="http://www.w3.org/1999/xlink" width="200" height="200"><defs><style type="text/css"></style></defs><path d="M512 588.56448c-89.96864 0-162.9184-73.74848-162.9184-164.73088 0-90.97216 72.94976-164.72064 162.9184-164.72064 89.96864 0 162.9184 73.74848 162.9184 164.72064 0 90.9824-72.94976 164.73088-162.9184 164.73088z m0-65.8944c34.9184 0 67.19488-18.83136 84.65408-49.408a99.7888 99.7888 0 0 0 0-98.84672A97.55648 97.55648 0 0 0 512 324.99712c-53.97504 0.01024-97.7408 44.25728-97.7408 98.83648 0 54.5792 43.76576 98.83648 97.7408 98.83648z m293.23264-98.83648c0-163.74784-131.2768-296.4992-293.23264-296.4992-161.9456 0-293.23264 132.75136-293.23264 296.4992 0 141.73184 95.65184 300.032 293.29408 472.832C709.61152 724.3776 805.23264 566.0672 805.23264 423.8336zM554.61888 946.54464a64.6144 64.6144 0 0 1-85.1968-0.03072C258.8672 762.4192 153.6 588.20608 153.6 423.8336 153.6 223.6928 314.0608 61.44 512 61.44s358.4 162.2528 358.4 362.3936c0 164.864-105.23648 339.07712-315.78112 522.71104z" p-id="5929"></path></svg>