<?xml version="1.0" standalone="no"?><!DOCTYPE svg PUBLIC "-//W3C//DTD SVG 1.1//EN" "http://www.w3.org/Graphics/SVG/1.1/DTD/svg11.dtd"><svg t="1613716561313" class="icon" viewBox="0 0 1024 1024" version="1.1" xmlns="http://www.w3.org/2000/svg" p-id="4899" xmlns:xlink="http://www.w3.org/1999/xlink" width="200" height="200"><defs><style type="text/css"></style></defs><path d="M798.338553 1024H225.492665A175.533212 175.533212 0 0 1 50.128235 848.635569V175.364431A175.533212 175.533212 0 0 1 225.492665 0h572.845888a175.533212 175.533212 0 0 1 175.533212 175.364431v673.271138a175.533212 175.533212 0 0 1-175.533212 175.364431zM225.492665 50.634581A124.898632 124.898632 0 0 0 100.762815 175.364431v673.271138a124.898632 124.898632 0 0 0 124.72985 124.72985h572.845888a124.898632 124.898632 0 0 0 124.72985-124.72985V175.364431A124.898632 124.898632 0 0 0 798.338553 50.634581z" p-id="4900"></path><path d="M775.215428 401.532224H259.417834a25.31729 25.31729 0 0 1 0-50.634581h515.797594a25.31729 25.31729 0 0 1 0 50.634581zM775.215428 600.019779H259.417834a25.31729 25.31729 0 0 1 0-50.63458h515.797594a25.31729 25.31729 0 0 1 0 50.63458zM775.215428 798.507335H259.417834a25.31729 25.31729 0 0 1 0-50.634581h515.797594a25.31729 25.31729 0 0 1 0 50.634581zM948.554475 336.71996a25.31729 25.31729 0 0 1-16.878193-6.920059L642.721609 56.035602a25.31729 25.31729 0 0 1 34.769078-36.794461l288.448327 273.764298a25.31729 25.31729 0 0 1-16.878193 43.714521z" p-id="4901"></path></svg>