<?xml version="1.0" standalone="no"?><!DOCTYPE svg PUBLIC "-//W3C//DTD SVG 1.1//EN" "http://www.w3.org/Graphics/SVG/1.1/DTD/svg11.dtd"><svg t="1612505992761" class="icon" viewBox="0 0 1024 1024" version="1.1" xmlns="http://www.w3.org/2000/svg" p-id="5146" xmlns:xlink="http://www.w3.org/1999/xlink" width="200" height="200"><defs><style type="text/css"></style></defs><path d="M654.208 538.5c18.1-19.9 29.1-46.4 29.1-75.5 0-61.9-49.9-112-111.4-112-61.5 0-111.4 50.1-111.4 112 0 29.1 11 55.5 29.1 75.5-42.7 26.5-71.8 72.8-74.6 126.1-0.2 4.6 3.4 8.4 8 8.4h43.9c4.2 0 7.6-3.3 7.9-7.5 3.8-50.6 46-90.5 97.2-90.5s93.4 40 97.2 90.5c0.3 4.2 3.7 7.5 7.9 7.5h43.8c4.6 0 8.2-3.8 8-8.4-2.8-53.3-32-99.7-74.7-126.1z m-82.3-23.5c-28.5 0-51.7-23.3-51.7-52s23.2-52 51.7-52c28.5 0 51.7 23.3 51.7 52s-23.2 52-51.7 52z" p-id="5147"></path><path d="M224 96v160h-56c-4.4 0-8 3.6-8 8v56c0 4.4 3.6 8 8 8h56v148h-56c-4.4 0-8 3.6-8 8v56c0 4.4 3.6 8 8 8h56v148h-56c-4.4 0-8 3.6-8 8v56c0 4.4 3.6 8 8 8h56v160c0 17.7 14.3 32 32 32h576c17.7 0 32-14.3 32-32V96c0-17.7-14.3-32-32-32H256c-17.7 0-32 14.3-32 32z m568 40v752H296V768h56c4.4 0 8-3.6 8-8v-56c0-4.4-3.6-8-8-8h-56V548h56c4.4 0 8-3.6 8-8v-56c0-4.4-3.6-8-8-8h-56V328h56c4.4 0 8-3.6 8-8v-56c0-4.4-3.6-8-8-8h-56V136h496z" p-id="5148"></path></svg>