<svg t="1612836176540" class="icon" viewBox="0 0 1024 1024" version="1.1" xmlns="http://www.w3.org/2000/svg" p-id="9987" width="200" height="200"><path d="M775.606857 657.042286c-56.758857 0-102.765714 45.348571-102.765714 101.376 0 55.954286 46.006857 101.302857 102.765714 101.302857s102.765714-45.348571 102.765714-101.302857-46.006857-101.376-102.765714-101.376z m0 136.630857a35.913143 35.913143 0 0 1-36.205714-35.693714c0-19.748571 16.237714-35.620571 36.205714-35.620572s36.205714 15.945143 36.205714 35.620572a36.059429 36.059429 0 0 1-36.205714 35.693714z m243.126857-83.894857a53.248 53.248 0 0 0-51.346285-46.299429h-1.682286a22.747429 22.747429 0 0 1-22.820572-22.528 31.232 31.232 0 0 1 2.194286-8.192 56.758857 56.758857 0 0 0-19.821714-69.705143l-1.974857-1.316571-56.758857-31.085714-2.048-0.950858a61.44 61.44 0 0 0-67.437715 13.165715 67.584 67.584 0 0 1-20.48 13.970285 67.876571 67.876571 0 0 1-20.553143-14.189714 61.44 61.44 0 0 0-67.145142-13.897143l-2.048 0.950857-58.660572 31.817143-1.974857 1.316572a56.758857 56.758857 0 0 0-20.553143 69.851428 31.158857 31.158857 0 0 1 2.194286 8.192c0 12.434286-10.24 22.601143-22.966857 22.601143h-1.609143a53.248 53.248 0 0 0-51.419429 46.299429c-2.925714 15.725714-4.681143 31.597714-5.046857 47.542857 0.365714 16.091429 2.048 31.963429 5.12 47.689143 5.266286 27.648 25.6 46.299429 50.834286 46.299428h2.194286c12.580571 0 22.893714 10.093714 22.893714 22.601143a31.158857 31.158857 0 0 1-2.194286 8.192 56.905143 56.905143 0 0 0 19.968 69.778286l1.828572 1.316571 55.661714 30.427429 2.121143 0.877714a60.928 60.928 0 0 0 68.242285-14.189714 71.899429 71.899429 0 0 1 20.48-14.774857 69.485714 69.485714 0 0 1 20.626286 15.140571c11.629714 12.653714 28.233143 19.821714 45.568 19.602286a59.245714 59.245714 0 0 0 23.259429-4.608l2.194285-0.950857 57.636572-31.451429 1.828571-1.243428a56.758857 56.758857 0 0 0 20.041143-69.851429 31.158857 31.158857 0 0 1-2.194286-8.192c0-12.434286 10.24-22.601143 22.966858-22.601143h1.609142c25.380571 0 46.08-18.285714 51.419429-46.153143 2.998857-15.798857 4.681143-31.744 5.12-47.762285a294.4 294.4 0 0 0-5.266286-47.689143z m-63.926857 76.873143a86.528 86.528 0 0 0-73.581714 114.614857l-41.106286 22.308571c-10.24-10.166857-36.644571-33.28-66.267428-33.28s-56.100571 23.186286-65.828572 32.548572l-39.204571-21.577143a85.942857 85.942857 0 0 0-53.174857-110.153143 88.502857 88.502857 0 0 0-19.968-4.388572 207.798857 207.798857 0 0 1-2.194286-29.476571c0.292571-9.801143 1.243429-19.602286 2.925714-29.330286a86.454857 86.454857 0 0 0 73.142857-114.541714l42.203429-22.893714c10.24 9.362286 36.205714 31.524571 65.097143 31.524571s54.637714-21.577143 64.512-30.354286l39.862857 21.869715c-16.091429 44.909714 7.753143 94.134857 53.321143 110.006857 6.436571 2.194286 13.165714 3.730286 19.894857 4.461714 1.682286 9.728 2.633143 19.529143 2.925714 29.403429a207.433143 207.433143 0 0 1-2.56 29.330285z" p-id="9988"></path><path d="M438.857143 585.142857a292.571429 292.571429 0 1 1 0-585.142857 292.571429 292.571429 0 0 1 0 585.142857z m0-73.142857a219.428571 219.428571 0 1 0 0-438.857143 219.428571 219.428571 0 0 0 0 438.857143z" p-id="9989"></path><path d="M73.142857 948.150857A36.571429 36.571429 0 1 1 0.146286 950.857143H0a438.857143 438.857143 0 0 1 491.008-435.785143A73.142857 73.142857 0 0 0 438.857143 585.142857a365.714286 365.714286 0 0 0-365.714286 363.008z" p-id="9990"></path></svg>