<?xml version="1.0" standalone="no"?><!DOCTYPE svg PUBLIC "-//W3C//DTD SVG 1.1//EN" "http://www.w3.org/Graphics/SVG/1.1/DTD/svg11.dtd"><svg t="1612506362224" class="icon" viewBox="0 0 1024 1024" version="1.1" xmlns="http://www.w3.org/2000/svg" p-id="8352" xmlns:xlink="http://www.w3.org/1999/xlink" width="200" height="200"><defs><style type="text/css"></style></defs><path d="M512 400c29.9 0 58 11.6 79.2 32.8C612.3 454 624 482.1 624 512c0 29.9-11.7 58-32.8 79.2S541.9 624 512 624c-29.9 0-58-11.7-79.2-32.8C411.6 570 400 541.9 400 512c0-29.9 11.6-58 32.8-79.2C454 411.6 482.1 400 512 400m0-53c-91.1 0-165 73.9-165 165s73.9 165 165 165 165-73.9 165-165-73.9-165-165-165z" p-id="8353"></path><path d="M559 905h-94v-78.5c-18.2-2.7-35.9-6.9-53-12.6v117.6c0 14.6 9.6 26.5 21.5 26.5h156.9c11.9 0 21.5-11.9 21.5-26.5V813.9c-17.1 5.7-34.8 9.9-53 12.6V905zM465 119h94v78.5c18.2 2.7 35.9 6.9 53 12.6V92.5c0-14.6-9.6-26.5-21.5-26.5h-157C421.6 66 412 77.9 412 92.5v117.6c17.1-5.7 34.8-9.9 53-12.6V119zM882.8 252.1l-111-111c-8.4-8.4-23.6-6.9-34 3.5l-83.2 83.2c16.3 8.2 31.8 17.8 46.4 28.6l55.5-55.5 66.5 66.5-55.5 55.5c10.8 14.6 20.4 30.1 28.6 46.4l83.2-83.2c10.4-10.4 12-25.6 3.5-34zM267.3 823.1l-66.5-66.5 55.5-55.5c-10.8-14.6-20.4-30.1-28.6-46.4l-83.2 83.2c-10.3 10.3-11.9 25.5-3.5 34l111 111c8.4 8.4 23.6 6.9 34-3.5l83.2-83.2c-16.3-8.2-31.8-17.8-46.4-28.6l-55.5 55.5zM119 559v-94h78.5c2.7-18.2 6.9-35.9 12.6-53H92.5c-14.6 0-26.5 9.6-26.5 21.5v156.9c0 11.9 11.9 21.5 26.5 21.5h117.6c-5.7-17.1-9.9-34.8-12.6-53H119zM931.5 412H813.9c5.7 17.1 9.9 34.8 12.6 53H905v94h-78.5c-2.7 18.2-6.9 35.9-12.6 53h117.6c14.6 0 26.5-9.6 26.5-21.5v-157c0-11.9-11.9-21.5-26.5-21.5zM879.4 737.9l-83.2-83.2c-8.2 16.3-17.8 31.8-28.6 46.4l55.5 55.5-66.5 66.5-55.5-55.5c-14.6 10.8-30.1 20.4-46.4 28.6l83.2 83.2c10.3 10.3 25.5 11.9 34 3.5l111-111c8.4-8.4 6.8-23.6-3.5-34zM200.9 267.3l66.5-66.5 55.5 55.5c14.6-10.8 30.1-20.4 46.4-28.6l-83.2-83.2c-10.3-10.3-25.5-11.9-34-3.5l-111 111c-8.4 8.4-6.9 23.6 3.5 34l83.2 83.2c8.2-16.3 17.8-31.8 28.6-46.4l-55.5-55.5z" p-id="8354"></path><path d="M559 249.1c38.7 6.9 74.6 22.1 105.6 43.8l38-38c-41.3-30.7-90.3-51.7-143.6-59.5v53.7zM774.9 559c-6.9 38.7-22.1 74.6-43.8 105.6l38 38c30.7-41.3 51.7-90.3 59.5-143.6h-53.7zM359.4 292.9c31-21.7 66.9-36.9 105.6-43.8v-53.7c-53.3 7.8-102.3 28.8-143.6 59.5l38 38zM769.1 321.4l-38 38c21.7 31 36.9 66.9 43.8 105.6h53.7c-7.9-53.3-28.8-102.3-59.5-143.6zM249.1 465c6.9-38.7 22.1-74.6 43.8-105.6l-38-38c-30.7 41.3-51.7 90.3-59.5 143.6h53.7zM664.6 731.1c-31 21.7-66.9 36.9-105.6 43.8v53.7c53.3-7.8 102.3-28.8 143.6-59.5l-38-38zM292.9 664.6c-21.7-31-36.9-66.9-43.8-105.6h-53.7c7.8 53.3 28.8 102.3 59.5 143.6l38-38zM465 774.9c-38.7-6.9-74.6-22.1-105.6-43.8l-38 38c41.3 30.7 90.3 51.7 143.6 59.5v-53.7z" p-id="8355"></path></svg>