<?xml version="1.0" standalone="no"?><!DOCTYPE svg PUBLIC "-//W3C//DTD SVG 1.1//EN" "http://www.w3.org/Graphics/SVG/1.1/DTD/svg11.dtd"><svg t="1612762291198" class="icon" viewBox="0 0 1024 1024" version="1.1" xmlns="http://www.w3.org/2000/svg" p-id="2119" xmlns:xlink="http://www.w3.org/1999/xlink" width="200" height="200"><defs><style type="text/css"></style></defs><path d="M1020 448.992q0.992 8 2.016 23.008 2.016 26.016 2.016 40t-2.016 40q-0.992 15.008-2.016 23.008-4 27.008-11.008 56.992-80 20-123.488 96t-20.512 155.008q-20.992 19.008-44.992 36.992-36.992 28-76.992 48.992h-0.992q-20 10.016-40.992 18.016 0 0.992-0.992 0.992t-2.016 0.992q-22.016 8-40.992 14.016-56.992-60-144.992-60t-144.992 60q-19.008-6.016-40.992-14.016-0.992-0.992-2.016-0.992t-0.992-0.992q-22.016-8-40.992-18.016h-0.992q-40-20.992-76.992-48.992-24-18.016-44.992-36.992 23.008-79.008-20.512-155.008t-123.488-96q-7.008-30.016-11.008-56.992-0.992-7.008-2.016-23.008Q0.032 525.984 0.032 512t2.016-40q0.992-16 2.016-23.008 4-27.008 11.008-56.992 80-20 123.488-96t20.512-155.008q20.992-19.008 44.992-36.992 36.992-28 76.992-48.992h0.992q20-10.016 40.992-18.016 0-0.992 0.992-0.992t2.016-0.992q20.992-8 40.992-14.016 56.992 60 144.992 60T657.024 20.992q19.008 6.016 40.992 14.016 0.992 0.992 2.016 0.992t0.992 0.992q20.992 8 40.992 18.016h0.992q40 20.992 76.992 48.992 24 18.016 44.992 36.992-23.008 79.008 20.512 155.008t123.488 96q7.008 30.016 11.008 56.992z m-56.992-14.976q-79.008-32.992-124-111.008-44.992-76.992-34.016-162.016-62.016-52-135.008-79.008-68 52-158.016 52t-158.016-52q-72.992 27.008-135.008 79.008 11.008 84.992-34.016 162.016-44.992 78.016-124 111.008-7.008 39.008-7.008 78.016t7.008 78.016q79.008 32.992 124 111.008 44.992 76.992 34.016 162.016 62.016 52 135.008 79.008 68.992-52 158.016-52t158.016 52q72.992-27.008 135.008-79.008-11.008-84.992 34.016-162.016 44.992-78.016 124-111.008 7.008-40 7.008-78.016t-7.008-78.016zM512 700q-78.016 0-132.992-55.008T324 512t55.008-132.992T512 324t132.992 55.008T700 512t-55.008 132.992T512 700z m0-321.984q-56 0-95.008 39.008t-39.008 95.008 39.008 95.008T512 646.048t95.008-39.008 39.008-95.008-39.008-95.008T512 378.016z" p-id="2120"></path></svg>