<?xml version="1.0" standalone="no"?><!DOCTYPE svg PUBLIC "-//W3C//DTD SVG 1.1//EN" "http://www.w3.org/Graphics/SVG/1.1/DTD/svg11.dtd"><svg t="1612505715858" class="icon" viewBox="0 0 1024 1024" version="1.1" xmlns="http://www.w3.org/2000/svg" p-id="1954" xmlns:xlink="http://www.w3.org/1999/xlink" width="200" height="200"><defs><style type="text/css"></style></defs><path d="M421.696 452.672c113.92 0 227.84-125.664 227.84-125.664l17.952-17.952 215.84 227.424c41.952-41.92 107.904-119.68 107.904-215.456 6.016-65.856-23.968-125.696-77.92-179.552-161.888-167.584-329.76-11.968-335.744-5.984L313.792 404.8c29.952 29.92 65.92 47.872 107.904 47.872z m-119.904 101.76c5.984-5.984 5.984-11.968 5.984-17.952 0-11.968-5.984-17.952-12-23.936-11.968-11.968-23.968-11.968-35.968-11.968-5.984 0-17.984 5.984-23.968 11.968l-95.936 119.68c-11.968 17.952-11.968 41.92 6.016 53.888a29.024 29.024 0 0 0 41.952 0v-5.984l95.936-119.712c5.984 0 11.968 0 17.984-5.984z m83.936 83.776c0-5.984 5.984-17.92 5.984-23.936 0-11.968-5.984-17.92-12-23.936-11.968-11.968-17.984-11.968-29.952-11.968-6.016 0-12 0-17.984 5.984v5.984l-95.936 119.68c0 6.016-5.984 6.016-12 12-5.984 17.952-5.984 35.904 12 47.872 5.984 5.984 17.984 5.984 29.984 5.984 5.984 0 11.968-5.984 17.984-5.984l95.904-119.68c0-6.016 0-12 6.016-12z m83.936 77.824c5.984-17.952 5.984-35.904-12-47.872-5.984-5.984-12-5.984-24-5.984h-5.984c-5.984 0-11.968 5.984-17.984 5.984l-95.904 119.68-6.016 5.984c-5.984 5.984-5.984 17.952-5.984 23.936 0 11.968 5.984 17.952 12 23.968 5.984 5.984 17.984 11.968 29.952 5.984 6.016 0 17.984-5.984 24-12 0 0 0-5.984 5.984-5.984l95.936-113.696z m101.92 47.872c0-11.968-6.016-17.952-12-23.936-5.984-5.984-17.984-5.984-24-5.984-11.968 0-17.952 5.984-23.968 11.968 0 0 0 5.984-5.984 5.984l-95.936 119.68v6.016c-5.984 5.984-5.984 11.968-5.984 17.92 0 12 5.984 17.984 12 23.968 17.984 11.968 41.952 11.968 53.952-5.984l95.904-119.68c0-12 6.016-17.984 6.016-29.952z m0 83.808l-53.952 65.824 29.952 29.92c6.016 5.984 17.984 11.968 29.984 11.968s24-5.984 29.984-11.968c5.984-5.984 12-17.952 12-29.92s-6.016-23.936-12-29.92l-35.968-35.904z m167.872-395.04s0-5.984 0 0l-77.952-83.776c-35.968 41.92-131.904 125.696-239.808 125.696-59.968 0-113.92-23.968-155.872-77.824l-12-17.92 221.824-221.472-24-23.936s-77.92-77.824-179.84-77.824c-59.936 0-119.904 23.936-173.856 77.824C49.984 195.328 32 249.184 32 303.04c0 107.712 89.92 203.488 119.904 239.36l47.968-59.84c12-17.92 35.968-29.92 53.952-29.92 24 0 41.952 5.984 59.968 17.952 17.984 12 29.952 35.936 29.952 53.888v5.984c17.984 0 41.984 5.984 53.952 17.92 18.016 12 29.984 35.936 29.984 53.888v5.984c17.984 0 41.984 5.984 53.952 17.952 17.984 11.968 29.984 35.936 29.984 53.888 24-5.984 47.968 0 65.952 17.92 17.984 12 29.984 35.936 29.984 53.888 0 17.952 0 35.904-12 53.856l41.984 41.92c5.984 5.984 17.984 11.968 29.952 11.968 12 0 24-5.984 29.984-11.968 5.984-5.984 12-17.984 12-29.952s-6.016-23.936-12-29.92l-5.984-5.984-149.888-155.616c-5.984-11.968-5.984-23.936 0-29.92 5.984-5.984 17.984-5.984 29.984 0 0 0 5.984 0 5.984 5.984l149.888 155.616a54.528 54.528 0 0 0 59.936 0c17.984-11.968 17.984-35.904 6.016-53.856l-6.016-5.984-149.856-155.616c-6.016-11.968-6.016-23.936 0-29.92 5.984-5.984 17.984-5.984 23.968-5.984 5.984 0 5.984 0 12 5.984l149.856 155.616s0 5.984 6.016 5.984c17.984 11.968 35.968 11.968 53.952-5.984 5.984-5.984 12-17.984 12-29.952s-6.016-23.936-12-29.92l-143.872-155.616z" p-id="1955"></path></svg>