<?xml version="1.0" standalone="no"?><!DOCTYPE svg PUBLIC "-//W3C//DTD SVG 1.1//EN" "http://www.w3.org/Graphics/SVG/1.1/DTD/svg11.dtd"><svg t="1612764104119" class="icon" viewBox="0 0 1228 1024" version="1.1" xmlns="http://www.w3.org/2000/svg" p-id="28289" xmlns:xlink="http://www.w3.org/1999/xlink" width="239.84375" height="200"><defs><style type="text/css"></style></defs><path d="M1187.84 778.24h-81.92V532.48a40.96 40.96 0 0 0-40.96-40.96h-409.6v-204.8h81.92a40.96 40.96 0 0 0 40.96-40.96v-204.8a40.96 40.96 0 0 0-40.96-40.96H491.52a40.96 40.96 0 0 0-40.96 40.96v204.8a40.96 40.96 0 0 0 40.96 40.96h81.92v204.8h-409.6a40.96 40.96 0 0 0-40.96 40.96v245.76H40.96a40.96 40.96 0 0 0-40.96 40.96v163.84a40.96 40.96 0 0 0 40.96 40.96h245.76a40.96 40.96 0 0 0 40.96-40.96V819.2a40.96 40.96 0 0 0-40.96-40.96H204.8v-204.8h368.64v204.8H491.52a40.96 40.96 0 0 0-40.96 40.96v163.84a40.96 40.96 0 0 0 40.96 40.96h245.76a40.96 40.96 0 0 0 40.96-40.96V819.2a40.96 40.96 0 0 0-40.96-40.96H655.36v-204.8H1024v204.8h-81.92a40.96 40.96 0 0 0-40.96 40.96v163.84a40.96 40.96 0 0 0 40.96 40.96h245.76a40.96 40.96 0 0 0 40.96-40.96V819.2a40.96 40.96 0 0 0-40.96-40.96zM532.48 81.92h163.84V204.8H532.48V81.92zM245.76 942.08H81.92v-81.92h163.84v81.92z m450.56 0H532.48v-81.92h163.84v81.92z m450.56 0h-163.84v-81.92h163.84v81.92z" p-id="28290"></path></svg>