<?xml version="1.0" standalone="no"?><!DOCTYPE svg PUBLIC "-//W3C//DTD SVG 1.1//EN" "http://www.w3.org/Graphics/SVG/1.1/DTD/svg11.dtd"><svg t="1611645368394" class="icon" viewBox="0 0 1024 1024" version="1.1" xmlns="http://www.w3.org/2000/svg" p-id="1066" xmlns:xlink="http://www.w3.org/1999/xlink" width="200" height="200"><defs><style type="text/css"></style></defs><path d="M875 874c-97 97-218 147-363 150-145-3-266-53-362-150C53 778 3 657 0 512c3-145 53-266 150-363C246 53 367 3 512 0c145 3 266 53 363 149 96 97 146 218 149 363-3 145-53 266-149 362z m-652-73c77 77 173 118 289 121 116-3 213-44 290-121s117-173 120-289c-3-116-43-213-120-290S628 105 512 102c-116 3-212 43-289 120S105 396 102 512c3 116 44 212 121 289z m212-149c-16 16-29 14-32 14-9 0-18-3-26-9l-5-5c-17-17-17-46 0-63l77-77-77-77c-16-16-14-29-14-32 0-9 3-18 9-26l5-5c17-17 46-17 63 0l77 77 77-77c19-19 46-19 64-1s18 45-1 64l-77 77 77 77c16 16 14 29 14 32 0 9-3 18-9 26l-5 5c-17 17-46 17-63 0l-77-77z" p-id="1067" fill="#e54a35"></path></svg>