<?xml version="1.0" standalone="no"?><!DOCTYPE svg PUBLIC "-//W3C//DTD SVG 1.1//EN" "http://www.w3.org/Graphics/SVG/1.1/DTD/svg11.dtd"><svg t="1611645346598" class="icon" viewBox="0 0 1024 1024" version="1.1" xmlns="http://www.w3.org/2000/svg" p-id="875" xmlns:xlink="http://www.w3.org/1999/xlink" width="200" height="200"><defs><style type="text/css"></style></defs><path d="M875 874c-97 97-218 147-363 150-145-3-266-53-362-150C53 778 3 657 0 512c3-145 53-266 150-363C246 53 367 3 512 0c145 3 266 53 363 149 96 97 146 218 149 363-3 145-53 266-149 362z m-652-73c77 77 173 118 289 121 116-3 213-44 290-121s117-173 120-289c-3-116-43-213-120-290S628 105 512 102c-116 3-212 43-289 120S105 396 102 512c3 116 44 212 121 289z m277-133c-12 11-25 17-40 17-13-1-25-5-35-13L291 553c-21-20-21-53 1-73 22-19 51-19 74 0l93 81 211-220c20-17 37-15 40-15 12 0 22 3 32 9l3 2c20 20 17 36 17 39 0 12-4 23-12 34z" p-id="876" fill="#15c758"></path></svg>