<?xml version="1.0" standalone="no"?><!DOCTYPE svg PUBLIC "-//W3C//DTD SVG 1.1//EN" "http://www.w3.org/Graphics/SVG/1.1/DTD/svg11.dtd"><svg t="1611644656591" class="icon" viewBox="0 0 1024 1024" version="1.1" xmlns="http://www.w3.org/2000/svg" p-id="5715" xmlns:xlink="http://www.w3.org/1999/xlink" width="200" height="200"><defs><style type="text/css"></style></defs><path d="M875 874c-97 97-218 147-363 150-145-3-266-53-362-150C53 778 3 657 0 512c3-145 53-266 150-363C246 53 367 3 512 0c145 3 266 53 363 149 96 97 146 218 149 363-3 145-53 266-149 362z m-652-73c77 77 173 118 289 121 116-3 213-44 290-121s117-173 120-289c-3-116-43-213-120-290S628 105 512 102c-116 3-212 43-289 120S105 396 102 512c3 116 44 212 121 289z m470-108c-48 48-108 72-181 72s-133-24-181-72-72-108-72-181 24-133 72-181 108-72 181-72 133 24 181 72 72 108 72 181-24 133-72 181z m-334-28c41 41 92 62 153 62s113-21 154-62 61-92 61-153-20-113-61-154-93-61-154-61-112 20-153 61-62 93-62 154 21 112 62 153z" p-id="5716"></path></svg>