<svg t="1612835950624" class="icon" viewBox="0 0 1024 1024" version="1.1" xmlns="http://www.w3.org/2000/svg" p-id="7289" width="200" height="200"><path d="M773 296.8C773 133.7 644 0.4 486 0.4S199 133.7 199 296.8c0 111 59.8 208.4 148.6 258.8-173.4 64-298.1 234.9-298.1 435.6 0 17.9 13.7 32.5 30.7 32.5 17.1 0 31.6-14.5 31.6-32.5 0-219.5 173.4-398.9 386.9-398.9 2.6 0 5.1 0 7.7-0.9C655.1 581.2 773 453.1 773 296.8M485.9 528.2C362 528.2 261.3 424 261.3 296.7c0-128.1 100.8-231.5 224.6-231.5 123.9 0 224.7 104.2 224.7 231.5S609.8 528.2 485.9 528.2m59.8 168.3c0 17.9 13.7 32.5 31.6 32.5h365.6c17.1 0 31.6-14.5 31.6-32.5 0-17.9-13.7-32.5-31.6-32.5H576.5c-17.1 0-30.8 14.6-30.8 32.5m396.4 99.1H576.5c-17.1 0-31.6 14.5-31.6 32.5 0 17.9 13.7 32.5 31.6 32.5h365.6c17.1 0 31.6-14.5 31.6-32.5s-14.5-32.5-31.6-32.5m0 146.9H576.5c-17.1 0-31.6 14.5-31.6 32.5 0 17.9 13.7 32.5 31.6 32.5h365.6c17.1 0 31.6-14.5 31.6-32.5s-14.5-32.5-31.6-32.5z" p-id="7290"></path></svg>