<?xml version="1.0" standalone="no"?><!DOCTYPE svg PUBLIC "-//W3C//DTD SVG 1.1//EN" "http://www.w3.org/Graphics/SVG/1.1/DTD/svg11.dtd"><svg t="1612505884936" class="icon" viewBox="0 0 1024 1024" version="1.1" xmlns="http://www.w3.org/2000/svg" p-id="4373" xmlns:xlink="http://www.w3.org/1999/xlink" width="200" height="200"><defs><style type="text/css"></style></defs><path d="M570.15848202 554.79017892c158.86607107 0 288.140625 128.31026798 288.14062501 285.66964215 0 50.38392892-41.40401797 91.30580393-92.20982108 91.30580393H242.96428595c-24.70982108 0-48.33482108-9.88392892-65.6316969-27.12053595a87.50892892 87.50892892 0 0 1-26.15625-64.125c0-157.41964297 129.27455393-285.66964297 288.20089298-285.66964298h130.78125z m0 52.79464215h-130.78124999c-62.67857107 0-121.86160702 24.16741095-166.21875001 68.10267893a230.22321405 230.22321405 0 0 0-68.58482107 164.83258905c0 21.21428595 17.23660702 37.96875 38.45089298 37.96875001h523.546875a38.45089298 38.45089298 0 0 0 38.45089215-37.96875c0-128.37053595-105.58928595-232.93526797-234.86383905-232.93526798zM505.06919608 90.96875c122.82589298 0 222.99107107 99.20089298 222.9910719 221.0625C727.578125 433.89285702 627.89508906 533.09375 504.52678595 533.09375c-59.66517892 0-115.41294607-23.203125-157.359375-64.66741095a217.44642892 217.44642892 0 0 1-65.14955393-156.39508905c0-121.86160702 100.16517892-221.0625 222.99107191-221.0625zM504.52678595 144.36607107C411.35267893 144.30580392 334.8125 219.70089297 334.8125 312.03125c0 92.8125 75.9375 168.26785702 169.71428595 168.26785702 93.77678595 0 169.77455392-75.515625 169.77455311-168.26785702S598.30357107 144.36607107 504.52678595 144.36607107z" p-id="4374"></path></svg>