<?xml version="1.0" standalone="no"?><!DOCTYPE svg PUBLIC "-//W3C//DTD SVG 1.1//EN" "http://www.w3.org/Graphics/SVG/1.1/DTD/svg11.dtd"><svg t="1612677643546" class="icon" viewBox="0 0 1030 1024" version="1.1" xmlns="http://www.w3.org/2000/svg" p-id="4867" xmlns:xlink="http://www.w3.org/1999/xlink" width="201.171875" height="200"><defs><style type="text/css"></style></defs><path d="M844.5104809 324.09295486c0-138.40880902-112.6099566-251.01784723-251.01876563-251.01784722S342.47203125 185.68230902 342.47203125 324.09203646c0 90.19174479 47.97644271 169.19275173 119.58981771 213.45517361-114.24746875 40.6999375-205.46139583 132.64858681-243.09019444 253.97143056-11.70045139 37.70135243-17.62782292 77.00439931-17.62782292 116.84011979 0 17.01616667 13.7870625 30.80139236 30.80139236 30.80139235s30.80139236-13.7870625 30.80139236-30.80139235c0-33.63925694 5.00253993-66.80737327 14.85883854-98.5932934C321.17059723 669.95425694 448.76153993 576.01267361 595.29086632 576.01267361c3.09501736 0 6.02104861-0.59236979 8.83778993-1.44189236 133.45861806-5.63623785 240.37723264-115.66180902 240.37723264-250.47874479z m-251.01784722 189.4150625c-104.44811111 0-189.4150625-84.96603298-189.4150625-189.4150625s84.96603298-189.4150625 189.4150625-189.4150625 189.4150625 84.96603298 189.4150625 189.4150625-84.96603298 189.4150625-189.4150625 189.4150625z m371.24779167 293.85215278l-4.64252604-14.39871875c-22.76077604-72.03216667-64.03012327-135.06949652-119.34827779-182.29560416-12.94488715-11.05022223-32.37645313-9.53577604-43.42575694 3.41829513-11.04930382 12.93478473-9.51557118 32.37645313 3.41921354 43.42575695 46.53455035 39.73561458 81.32732118 92.99746527 100.61745313 154.02073784l4.80324652 14.89924827c9.67537327 29.69839063 19.6721875 60.41253473 19.6721875 88.43575868 0 17.01616667 13.7870625 30.80139236 30.80139237 30.80139236s30.80139236-13.7870625 30.80139236-30.80139236c0.0009184-37.79962152-12.06138368-74.83880556-22.70016146-107.50547396zM388.59972917 552.99382639c2.5467309-3.18042882 4.69671181-6.72087152 5.84196006-10.90052257 4.49190798-16.40267361-5.16326042-33.34720486-21.56685242-37.85105209-77.07511632-21.11591667-130.89811111-91.75394792-130.89811112-171.76703471 0-61.82411979 31.33314757-118.31599306 83.82353993-151.13236112 14.42810764-9.0251441 18.80980729-28.02597917 9.79660244-42.44398438-9.02422569-14.4483125-28.02506077-18.79052083-42.44306598-9.79660242-70.61966319 44.14853993-112.78169792 120.17116667-112.78169791 203.37294792 0 78.68875 38.79884375 150.50968402 100.12243402 194.64628471C177.3422934 568.84453993 95.16177604 655.77595486 61.58772569 764.00513021 50.4484184 799.91927083 44.7928941 837.3689809 44.7928941 875.31095486c0 17.01616667 13.7870625 30.80139236 30.80139236 30.80139237s30.80139236-13.7870625 30.80139236-30.80139237c0-31.74459202 4.72242708-63.04835069 14.02768403-93.05716146 34.81205729-112.23800348 132.13244444-197.16546354 247.91089063-216.35640798 8.57145312-1.42352431 15.68907465-6.2809566 20.26823089-12.90355903z" p-id="4868"></path></svg>